<svg width="960" height="280" viewBox="0 0 960 280" fill="none" xmlns="http://www.w3.org/2000/svg" role="img" aria-labelledby="title desc">
  <title id="title">Nymbl logo</title>
  <desc id="desc">Electric media-style Nymbl wordmark with an automation spark emblem.</desc>
  <defs>
    <linearGradient id="spectrum" x1="94" y1="42" x2="236" y2="232" gradientUnits="userSpaceOnUse">
      <stop offset="0" stop-color="#00E5FF"/>
      <stop offset="0.38" stop-color="#0A84FF"/>
      <stop offset="0.72" stop-color="#FF2FA3"/>
      <stop offset="1" stop-color="#FF8A00"/>
    </linearGradient>
    <linearGradient id="wordmark" x1="304" y1="82" x2="782" y2="196" gradientUnits="userSpaceOnUse">
      <stop offset="0" stop-color="#FFFFFF"/>
      <stop offset="0.45" stop-color="#DDFBFF"/>
      <stop offset="0.75" stop-color="#00E5FF"/>
      <stop offset="1" stop-color="#FF2FA3"/>
    </linearGradient>
    <radialGradient id="glow" cx="0" cy="0" r="1" gradientUnits="userSpaceOnUse" gradientTransform="translate(140 140) rotate(90) scale(124)">
      <stop stop-color="#00E5FF" stop-opacity="0.55"/>
      <stop offset="0.55" stop-color="#0A84FF" stop-opacity="0.18"/>
      <stop offset="1" stop-color="#05070C" stop-opacity="0"/>
    </radialGradient>
    <filter id="softGlow" x="-70" y="-70" width="1100" height="420" filterUnits="userSpaceOnUse" color-interpolation-filters="sRGB">
      <feGaussianBlur stdDeviation="18"/>
    </filter>
  </defs>

  <rect width="960" height="280" rx="36" fill="#05070C"/>
  <path d="M0 214C138 170 224 288 367 232C506 178 559 49 704 62C802 71 885 127 960 96V280H0V214Z" fill="#0A84FF" opacity="0.08"/>
  <path d="M0 70C121 28 209 91 317 79C454 64 506 4 646 25C784 46 825 107 960 69" stroke="#00E5FF" stroke-opacity="0.18" stroke-width="2"/>
  <path d="M40 225H920" stroke="url(#spectrum)" stroke-width="2" stroke-linecap="round" opacity="0.65"/>

  <g filter="url(#softGlow)" opacity="0.85">
    <circle cx="140" cy="140" r="80" fill="url(#glow)"/>
    <path d="M78 66L210 214" stroke="#FF2FA3" stroke-width="18" stroke-linecap="round" opacity="0.38"/>
  </g>

  <g transform="translate(56 44)">
    <rect x="0" y="0" width="192" height="192" rx="40" fill="#07101A" stroke="url(#spectrum)" stroke-width="4"/>
    <path d="M44 139V53H66L126 104V53H148V139H126L66 88V139H44Z" fill="url(#spectrum)"/>
    <path d="M154 39L165 64L192 70L167 82L162 110L147 85L119 90L137 68L124 43L151 53L154 39Z" fill="#B7FF2A"/>
    <circle cx="42" cy="42" r="5" fill="#00E5FF"/>
    <circle cx="150" cy="150" r="5" fill="#FF2FA3"/>
    <path d="M43 43C77 29 130 31 153 69" stroke="#00E5FF" stroke-width="3" stroke-linecap="round" stroke-dasharray="2 10" opacity="0.85"/>
    <path d="M150 149C113 163 62 157 42 116" stroke="#FF8A00" stroke-width="3" stroke-linecap="round" stroke-dasharray="2 10" opacity="0.85"/>
  </g>

  <g>
    <text x="292" y="168" fill="url(#wordmark)" font-family="Arial Black, Arial, Helvetica, sans-serif" font-size="96" font-weight="900" letter-spacing="-2">
      NYMBL
    </text>
    <circle cx="797" cy="151" r="9" fill="#00E5FF"/>
    <text x="294" y="208" fill="#8EA1B6" font-family="Arial, Helvetica, sans-serif" font-size="22" font-weight="700" letter-spacing="5">
      AUTOMATE EVERYTHING
    </text>
  </g>
</svg>
